G75*
%MOIN*%
%OFA0B0*%
%FSLAX24Y24*%
%IPPOS*%
%LPD*%
%AMOC8*
5,1,8,0,0,1.08239X$1,22.5*
%
%ADD10C,0.0946*%
%ADD11OC8,0.0710*%
%ADD12C,0.0710*%
%ADD13OC8,0.0600*%
%ADD14OC8,0.0640*%
%ADD15C,0.0840*%
%ADD16C,0.0600*%
%ADD17C,0.0740*%
%ADD18C,0.1380*%
%ADD19R,0.0680X0.0680*%
%ADD20OC8,0.0740*%
%ADD21C,0.0600*%
%ADD22C,0.0820*%
%ADD23C,0.1970*%
%ADD24C,0.0789*%
%ADD25C,0.0640*%
D10*
X006857Y001500D03*
X026107Y016750D03*
X027357Y003500D03*
X007357Y020500D03*
D11*
X005107Y008000D03*
X003482Y008000D03*
D12*
X002482Y008000D03*
X006107Y008000D03*
D13*
X006607Y009750D03*
X006607Y010750D03*
X016607Y004625D03*
X017607Y004625D03*
X017482Y010125D03*
X018482Y010125D03*
X019107Y013250D03*
X019107Y014250D03*
X025857Y009250D03*
X025857Y008250D03*
D14*
X017607Y013250D03*
X017607Y014250D03*
X015607Y014250D03*
X015607Y013250D03*
D15*
X006357Y006250D03*
X002357Y006250D03*
D16*
X011357Y006260D02*
X011357Y005740D01*
X012357Y005740D02*
X012357Y006260D01*
X013357Y006260D02*
X013357Y005740D01*
X014357Y005740D02*
X014357Y006260D01*
X015357Y006260D02*
X015357Y005740D01*
X016357Y005740D02*
X016357Y006260D01*
X017357Y006260D02*
X017357Y005740D01*
X018357Y005740D02*
X018357Y006260D01*
X019357Y006260D02*
X019357Y005740D01*
X020357Y005740D02*
X020357Y006260D01*
X021357Y006260D02*
X021357Y005740D01*
X022357Y005740D02*
X022357Y006260D01*
X023357Y006260D02*
X023357Y005740D01*
X024357Y005740D02*
X024357Y006260D01*
X024357Y008740D02*
X024357Y009260D01*
X023357Y009260D02*
X023357Y008740D01*
X022357Y008740D02*
X022357Y009260D01*
X021357Y009260D02*
X021357Y008740D01*
X020357Y008740D02*
X020357Y009260D01*
X019357Y009260D02*
X019357Y008740D01*
X018357Y008740D02*
X018357Y009260D01*
X017357Y009260D02*
X017357Y008740D01*
X016357Y008740D02*
X016357Y009260D01*
X015357Y009260D02*
X015357Y008740D01*
X014357Y008740D02*
X014357Y009260D01*
X013357Y009260D02*
X013357Y008740D01*
X012357Y008740D02*
X012357Y009260D01*
X011357Y009260D02*
X011357Y008740D01*
D17*
X004857Y010420D02*
X004857Y011080D01*
X003857Y011080D02*
X003857Y010420D01*
X002857Y010420D02*
X002857Y011080D01*
D18*
X003857Y016650D03*
D19*
X008757Y020500D03*
X009757Y020500D03*
X010757Y020500D03*
X011757Y020500D03*
X012757Y020500D03*
X013757Y020500D03*
X014757Y020500D03*
X015757Y020500D03*
X016757Y020500D03*
X017757Y020500D03*
X019357Y020500D03*
X020357Y020500D03*
X021357Y020500D03*
X022357Y020500D03*
X023357Y020500D03*
X024357Y020500D03*
X025357Y020500D03*
X026357Y020500D03*
X026357Y001500D03*
X025357Y001500D03*
X024357Y001500D03*
X023357Y001500D03*
X022357Y001500D03*
X021357Y001500D03*
X019357Y001500D03*
X018357Y001500D03*
X017357Y001500D03*
X016357Y001500D03*
X015357Y001500D03*
X014357Y001500D03*
X013357Y001500D03*
X012357Y001500D03*
D20*
X015107Y003500D03*
X019107Y003500D03*
X008607Y013250D03*
X007357Y013250D03*
X007357Y017250D03*
X008607Y017250D03*
X005107Y019500D03*
X005107Y020500D03*
X003107Y020500D03*
X003107Y019500D03*
D21*
X015657Y011750D03*
X017557Y011750D03*
D22*
X025967Y007280D03*
X027747Y007280D03*
X027747Y004720D03*
X025967Y004720D03*
D23*
X003192Y003539D03*
X004334Y001689D03*
X005515Y003539D03*
D24*
X027128Y008750D02*
X027837Y008750D01*
X027837Y009750D02*
X027128Y009750D01*
X027128Y010750D02*
X027837Y010750D01*
X027837Y011750D02*
X027128Y011750D01*
X027128Y012750D02*
X027837Y012750D01*
X027837Y013750D02*
X027128Y013750D01*
X027128Y014750D02*
X027837Y014750D01*
D25*
X025982Y012750D03*
X024607Y014750D03*
X021982Y012750D03*
X023732Y012125D03*
X020607Y014750D03*
X020982Y015875D03*
X019732Y012125D03*
X016232Y015125D03*
X016982Y015875D03*
X014732Y018000D03*
X012232Y015125D03*
X010732Y018000D03*
X020357Y007500D03*
X024357Y007500D03*
M02*
