%
M48
M72
T01C0.0320
T02C0.0400
T03C0.0440
T04C0.0472
T05C0.0866
T06C0.1024
T07C0.1300
%
T01
X24357Y6000
X23357Y6000
X22357Y6000
X21357Y6000
X20357Y6000
X19357Y6000
X18357Y6000
X17357Y6000
X16357Y6000
X15357Y6000
X14357Y6000
X13357Y6000
X12357Y6000
X11357Y6000
X11357Y9000
X12357Y9000
X13357Y9000
X14357Y9000
X15357Y9000
X16357Y9000
X17357Y9000
X18357Y9000
X19357Y9000
X20357Y9000
X21357Y9000
X22357Y9000
X23357Y9000
X24357Y9000
X24357Y7500
X25857Y8250
X25857Y9250
X23732Y12125
X21982Y12750
X19732Y12125
X19107Y13250
X19107Y14250
X17607Y14250
X17607Y13250
X17557Y11750
X17482Y10125
X18482Y10125
X20357Y7500
X17607Y4625
X16607Y4625
X15107Y3500
X19107Y3500
X15657Y11750
X15607Y13250
X15607Y14250
X16232Y15125
X16982Y15875
X14732Y18000
X12232Y15125
X10732Y18000
X8607Y17250
X7357Y17250
X5107Y19500
X5107Y20500
X3107Y20500
X3107Y19500
X24607Y14750
X25982Y12750
X20982Y15875
X20607Y14750
X8607Y13250
X7357Y13250
X6607Y10750
X6607Y9750
X6107Y8000
X5107Y8000
X3482Y8000
X2482Y8000
T02
X26357Y1500
X25357Y1500
X24357Y1500
X23357Y1500
X22357Y1500
X21357Y1500
X19357Y1500
X18357Y1500
X17357Y1500
X16357Y1500
X15357Y1500
X14357Y1500
X13357Y1500
X12357Y1500
X8757Y20500
X9757Y20500
X10757Y20500
X11757Y20500
X12757Y20500
X13757Y20500
X14757Y20500
X15757Y20500
X16757Y20500
X17757Y20500
X19357Y20500
X20357Y20500
X21357Y20500
X22357Y20500
X23357Y20500
X24357Y20500
X25357Y20500
X26357Y20500
X25967Y7280
X27747Y7280
X27747Y4720
X25967Y4720
T03
X4857Y10750
X3857Y10750
X2857Y10750
X2357Y6250
X6357Y6250
T04
X27482Y14750
X27482Y13750
X27482Y12750
X27482Y11750
X27482Y10750
X27482Y9750
X27482Y8750
T05
X6857Y1500
X7357Y20500
X26107Y16750
X27357Y3500
T06
X4334Y1689
X3192Y3539
X5515Y3539
T07
X3857Y16650
M30
